<svg width="36" height="36" viewBox="0 0 36 36" fill="none" xmlns="http://www.w3.org/2000/svg">
<path d="M35.4614 22.3543C33.0571 31.9972 23.2893 37.8658 13.6441 35.4611C4.00295 33.0571 -1.86622 23.2897 0.539134 13.6476C2.94238 4.00354 12.7102 -1.86541 22.3524 0.538622C31.9969 2.94265 37.866 12.7109 35.4614 22.3543Z" fill="#F5F8FE"/>
<path fill-rule="evenodd" clip-rule="evenodd" d="M18.002 11.424L13.3405 16.085L13.3406 16.0848L10.6283 13.3728L18.002 6L25.378 13.375L22.6657 16.087L18.002 11.424ZM8.71313 15.2875L6.00073 18L8.71294 20.7115L11.4253 17.9994L8.71313 15.2875ZM13.3405 19.9153L18.002 24.576L22.6656 19.9131L25.3794 22.6236L25.378 22.6251L18.002 30L10.6284 22.6272L10.6245 22.6234L13.3405 19.9153ZM27.291 15.2891L24.5786 18.0012L27.2909 20.7131L30.0032 18.001L27.291 15.2891Z" fill="#F3BA2F"/>
<path d="M20.7529 17.9985H20.754L18.002 15.2466L15.9678 17.28L15.7341 17.5137L15.2521 17.9958L15.2483 17.9995L15.2521 18.0034L18.002 20.7534L20.7542 18.0014L20.7556 17.9999L20.7531 17.9985" fill="#F3BA2F"/>
</svg>
