<svg width="17" height="16" viewBox="0 0 17 16" fill="none" xmlns="http://www.w3.org/2000/svg">
<g clip-path="url(#clip0_502_6)">
<path d="M3.30685 2H14.1852C14.5458 2 14.8917 2.14048 15.1467 2.39052C15.4017 2.64057 15.5449 2.97971 15.5449 3.33333V7.33333C15.5449 9.10144 14.8286 10.7971 13.5536 12.0474C12.2785 13.2976 10.5492 14 8.74601 14C7.85316 14 6.96905 13.8276 6.14416 13.4925C5.31928 13.1575 4.56977 12.6664 3.93843 12.0474C2.66338 10.7971 1.94706 9.10144 1.94706 7.33333V3.33333C1.94706 2.97971 2.09033 2.64057 2.34534 2.39052C2.60035 2.14048 2.94621 2 3.30685 2V2Z" stroke="#0768B5" stroke-width="2" stroke-linecap="round" stroke-linejoin="round"/>
<path d="M6.02643 6.66666L8.746 9.33333L11.4656 6.66666" stroke="#0768B5" stroke-width="2" stroke-linecap="round" stroke-linejoin="round"/>
</g>
<defs>
<clipPath id="clip0_502_6">
<rect width="16.3175" height="16" fill="white" transform="translate(0.58728)"/>
</clipPath>
</defs>
</svg>
